<svg width="100" height="100" xmlns="http://www.w3.org/2000/svg">
 <g>
  <title>Layer 1</title>
  <g id="svg_3">
   <g stroke="null">
    <path p-id="4836" fill="#FF6900" d="m8.37834,6.34852l6.48728,0l0,1.4179l-6.48728,0l0,-1.4179z" stroke="null"/>
    <path p-id="4837" fill="#FF6900" d="m18.07895,1.20863l-4.30464,0l1.03069,1.4179l3.1527,0.94527c0.60629,0.17724 0.97006,0.70895 0.97006,1.24066l0,4.54909c0,0.59079 -0.36377,1.06342 -0.97006,1.24066l-3.1527,0.94527l-0.97006,1.47698l4.30464,0c1.81886,0 3.21333,-1.4179 3.21333,-3.13119l0,-5.55344c0,-1.7133 -1.45509,-3.13119 -3.27395,-3.13119l0,0l-0.00001,-0.00001zm-12.8533,9.45266c-0.60629,-0.17724 -0.97006,-0.70895 -0.97006,-1.24066l0,-4.60817c0,-0.59079 0.36377,-1.06342 0.97006,-1.24066l3.1527,-0.94527l1.03069,-1.4179l-4.30464,0c-1.75823,0 -3.21333,1.4179 -3.21333,3.13119l0,5.49436c0,1.77237 1.45509,3.13119 3.21333,3.13119l4.30464,0l-1.03069,-1.4179l-3.1527,-0.88619l0,0.00001zm66.69166,-8.98003c-1.87949,0 -3.39521,1.47698 -3.39521,3.24935l0,4.54909c0,1.77237 1.51572,3.24935 3.39521,3.24935c1.87949,0 3.39521,-1.47698 3.39521,-3.24935l0,-0.05908l-1.45509,0l0,0.05908c0,1.00435 -0.8488,1.83145 -1.94012,1.83145c-1.03069,0 -1.94012,-0.82711 -1.94012,-1.83145l0,-4.54909c0,-1.00435 0.8488,-1.83145 1.94012,-1.83145c1.03069,0 1.94012,0.82711 1.94012,1.83145l0,0.05908l1.45509,0l0,-0.05908c0,-1.77237 -1.51572,-3.24935 -3.39521,-3.24935zm9.51872,2.89488c-1.57635,0 -2.84955,1.18158 -2.91018,2.65856l0,2.8358c0.06063,1.47698 1.33383,2.65856 2.91018,2.65856c1.57635,0 2.84955,-1.18158 2.91018,-2.65856l0,-2.77672c-0.06063,-1.53606 -1.33383,-2.71764 -2.91018,-2.71764l0,0zm1.45509,5.31712c0,0.76803 -0.66692,1.4179 -1.45509,1.4179c-0.78817,0 -1.45509,-0.59079 -1.45509,-1.4179l0,-2.42225c0,-0.76803 0.66692,-1.4179 1.45509,-1.4179c0.78817,0 1.45509,0.64987 1.45509,1.4179l0,2.42225zm-6.85105,-8.212l1.45509,0l0,10.87056l-1.45509,0l0,-10.87056zm-40.37877,2.89488l1.45509,0l0,7.91661l-1.45509,0l0,-7.91661zm-2.91018,-2.89488l1.45509,0l0,10.87056l-1.45509,0l0,-10.87056zm-3.69836,0l-1.81886,0l-2.97081,10.87056l1.45509,0l0.78817,-2.89488l3.21333,0l0.78817,2.8358l1.45509,0l-2.91018,-10.81148l0,0zm-2.18264,6.55779l1.21258,-4.49002l1.21258,4.49002l-2.42515,0l-0.00001,0zm62.93267,1.77237c0,0.76803 -0.66692,1.4179 -1.45509,1.4179c-0.78817,0 -1.45509,-0.64987 -1.45509,-1.4179l0,-5.43528l-1.45509,0l0,5.6716c0,1.35882 1.15195,2.48132 2.54641,2.48132c0.24252,0 0.48503,-0.05908 0.72755,-0.11816c0.12126,-0.05908 0.30314,-0.11816 0.4244,-0.17724c0.24252,-0.11816 0.4244,-0.23632 0.60629,-0.41355l0.06063,-0.05908l0,0.59079l1.45509,0l0,-7.97569l-1.45509,0l0,5.43528l0,0l-0.00001,0.00001zm-54.1415,-8.33016l1.45509,0l0,1.4179l-1.45509,0l0,-1.4179zm6.18413,2.89488c-0.66692,0 -1.2732,0.23632 -1.75823,0.70895l-0.06063,0.05908l0,-3.66291l-1.45509,0l0,10.87056l1.45509,0l0,-0.59079l0.06063,0.05908c0.48503,0.47263 1.09132,0.70895 1.75823,0.70895c1.39446,0 2.54641,-1.1225 2.54641,-2.48132l0,-3.19027c0,-1.35882 -1.15195,-2.48132 -2.54641,-2.48132l0,0l0,-0.00001zm1.09132,5.43528c0,0.76803 -0.66692,1.4179 -1.45509,1.4179s-1.45509,-0.64987 -1.45509,-1.4179l0,-2.71764c0,-0.76803 0.66692,-1.4179 1.45509,-1.4179s1.45509,0.64987 1.45509,1.4179l0,2.71764zm12.61079,-5.43528c-0.66692,0 -1.2732,0.23632 -1.75823,0.70895l-0.12126,0.05908l0,-3.66291l-1.45509,0l0,10.87056l1.45509,0l0,-0.59079l0.06063,0.05908c0.48503,0.47263 1.09132,0.70895 1.75823,0.70895c1.39446,0 2.54641,-1.1225 2.54641,-2.48132l0,-3.19027c0,-1.35882 -1.15195,-2.48132 -2.48578,-2.48132l0,0l0,-0.00001zm1.03069,5.43528c0,0.76803 -0.66692,1.4179 -1.45509,1.4179c-0.78817,0 -1.45509,-0.64987 -1.45509,-1.4179l0,-2.71764c0,-0.76803 0.66692,-1.4179 1.45509,-1.4179c0.78817,0 1.45509,0.64987 1.45509,1.4179l0,2.71764zm40.07562,-8.33016l0,3.66291l-0.06063,-0.05908c-0.48503,-0.47263 -1.09132,-0.70895 -1.75823,-0.70895c-1.39446,0 -2.54641,1.1225 -2.54641,2.48132l0,3.19027c0,1.35882 1.15195,2.42225 2.54641,2.42225c0.66692,0 1.2732,-0.23632 1.75823,-0.70895l0.06063,-0.05908l0,0.59079l1.45509,0l0,-10.81148l-1.45509,0l0,0zm0,8.33016c0,0.76803 -0.66692,1.4179 -1.45509,1.4179c-0.78817,0 -1.45509,-0.64987 -1.45509,-1.4179l0,-2.71764c0,-0.76803 0.66692,-1.4179 1.45509,-1.4179c0.78817,0 1.45509,0.64987 1.45509,1.4179l0,2.71764zm-45.53222,-3.07212c-0.06063,-0.41355 -0.24252,-0.82711 -0.48503,-1.18158c-0.54566,-0.70895 -1.33383,-1.1225 -2.18264,-1.18158l-0.18189,0c-0.66692,0 -1.33383,0.23632 -1.87949,0.64987c-0.54566,0.41355 -0.8488,1.00435 -1.03069,1.65422l1.45509,0c0.12126,-0.64987 0.72755,-1.1225 1.39446,-1.1225c0.36377,0 0.72755,0.11816 1.03069,0.41355c0.24252,0.23632 0.4244,0.59079 0.4244,0.94527l0,0.64987l-2.06138,0c-1.39446,0 -2.54641,1.1225 -2.54641,2.48132c0,1.1225 0.78817,2.12685 1.87949,2.36317l0.06063,0c0.06063,0 0.12126,0 0.12126,0.05908l0.60629,0c0.36377,0 0.66692,-0.05908 0.90943,-0.11816c0.36377,-0.11816 0.72755,-0.2954 1.03069,-0.59079l0.06063,-0.05908l0,0.59079l1.45509,0l0,-5.25804c0,-0.05908 0,-0.11816 -0.06063,-0.2954l0,0l0.00001,-0.00001zm-1.45509,2.95396c0,0.76803 -0.54566,1.4179 -1.33383,1.53606c-0.12126,0 -0.24252,0.05908 -0.30314,0.05908c-0.24252,0 -0.48503,-0.05908 -0.72755,-0.17724c-0.06063,-0.05908 -0.12126,-0.05908 -0.18189,-0.11816c-0.06063,-0.05908 -0.18189,-0.11816 -0.24252,-0.23632c-0.18189,-0.23632 -0.24252,-0.47263 -0.24252,-0.76803c0,-0.70895 0.60629,-1.29974 1.33383,-1.29974l1.75823,0l0,1.00435l-0.06063,0l0.00002,0zm15.1572,-2.89488c-0.06063,-0.41355 -0.24252,-0.82711 -0.48503,-1.18158c-0.54566,-0.70895 -1.33383,-1.1225 -2.18264,-1.18158l-0.18189,0c-0.66692,0 -1.33383,0.23632 -1.87949,0.64987c-0.54566,0.41355 -0.8488,1.00435 -1.03069,1.65422l1.45509,0c0.12126,-0.64987 0.72755,-1.1225 1.39446,-1.1225c0.36377,0 0.72755,0.11816 1.03069,0.41355c0.24252,0.23632 0.4244,0.59079 0.4244,0.94527l0,0.64987l-2.06138,0c-1.39446,0 -2.54641,1.1225 -2.54641,2.48132c0,1.1225 0.78817,2.12685 1.87949,2.36317l0.06063,0c0.06063,0 0.12126,0 0.12126,0.05908l0.60629,0c0.36377,0 0.66692,-0.05908 0.90943,-0.11816c0.36377,-0.11816 0.72755,-0.2954 1.03069,-0.59079l0.06063,-0.05908l0,0.59079l1.45509,0l0,-5.25804c-0.06063,-0.11816 -0.06063,-0.17724 -0.06063,-0.2954l0,0l0.00001,-0.00001zm-1.45509,2.89488c0,0.76803 -0.54566,1.4179 -1.33383,1.53606c-0.12126,0 -0.24252,0.05908 -0.30314,0.05908c-0.24252,0 -0.48503,-0.05908 -0.72755,-0.17724c-0.06063,-0.05908 -0.12126,-0.05908 -0.18189,-0.11816c-0.06063,-0.05908 -0.18189,-0.11816 -0.24252,-0.23632c-0.18189,-0.23632 -0.24252,-0.47263 -0.24252,-0.76803c0,-0.70895 0.60629,-1.29974 1.33383,-1.29974l1.75823,0l0,1.00435l-0.06063,0l0.00002,0z" stroke="null"/>
   </g>
   <g>
    <path p-id="5051" fill="#FF6A00" d="m-212.49074,-281.79606l138.752,0c0,-25.6 -4.096,-51.2 -12.8,-72.704l-173.056,0c-53.248,0 -95.744,42.496 -95.744,95.744l0,183.296c21.504,6.144 45.056,10.752 68.096,10.752l4.096,0l0,-146.432c0,-53.76 16.896,-70.656 70.656,-70.656zm351.744,215.552c0,41.472 33.28,74.752 74.24,74.752s74.752,-33.28 74.752,-74.24l0,-0.512c0,-41.472 -33.28,-74.752 -74.24,-74.752c-41.472,0 -74.752,33.28 -74.752,74.24l0,0.512zm89.6,320l-441.344,0c-53.248,0 -72.704,-2.048 -72.704,-55.296l0,-189.952l-4.096,0c-21.504,2.048 -45.056,0 -66.048,-6.144l0,277.504c0,53.248 42.496,96.256 95.744,96.256l548.352,0l0,-61.952c0,-32.768 -28.16,-60.416 -59.904,-60.416z"/>
    <path p-id="5052" fill="#FF6A00" d="m455.15726,328.50794l0,-588.8c0,-96.256 -66.048,-96.256 -119.296,-96.256l-299.008,0c-19.456,0 -36.352,14.848 -36.352,36.352l0,4.096l0,-2.048c2.048,10.752 2.048,21.504 2.048,31.744l285.696,0c53.248,0 72.704,19.456 72.704,72.704l0,492.544c0,53.248 -19.456,96.256 -72.704,96.256l0,36.352c0,25.6 10.752,45.056 45.056,45.056l36.352,0c93.696,2.048 85.504,-74.752 85.504,-128zm-693.248,-322.56c136.704,-23.552 241.152,-142.848 241.152,-285.696l0,-4.096l-42.496,0c-19.456,0 -34.304,12.8 -36.352,31.744c-12.8,104.448 -102.4,185.344 -208.896,187.904l0,76.8c12.8,0 25.6,-2.048 38.4,-4.096c3.584,0 5.632,0 8.192,-2.56z"/>
   </g>
   <g stroke="null">
    <path stroke="null" p-id="5274" fill="#FF6A00" d="m49.8617,29.75735l-9.17367,3.69805l-5.94675,-4.13311l15.21262,-6.4172l15.30482,6.58035l-5.80845,3.91558l-9.58856,-3.64366zm0.0922,21.37253l9.17367,-3.69805l5.90065,4.13311l-15.21262,6.4172l-15.30482,-6.58035l5.80845,-3.96996l9.63466,3.69805zm-13.96795,-5.49268l-6.22334,3.5349l-19.9608,-8.75567l20.28349,-8.86443l5.90065,4.13311l-11.01762,4.73132l11.01762,5.22077zm39.13792,-5.22077l-11.01762,-4.73132l5.90065,-4.13311l20.32959,8.86443l-19.9608,8.75567l-6.22334,-3.5349l10.97152,-5.22077zm-25.16997,31.27024l-40.19819,-18.59899l-0.0922,-9.40826l40.29039,18.59899l40.29039,-18.38146l0,9.51703l-40.29039,18.27269zm0.0922,3.58928l40.29039,-18.38146l0,9.51703l-40.29039,18.32708l-40.19819,-18.59899l-0.0922,-9.40826l40.29039,18.54461zm-40.29039,-5.49268l40.29039,18.59899l40.29039,-18.38146l0,9.51703l-40.29039,18.32708l-40.19819,-18.59899l-0.0922,-9.46265z"/>
   </g>
  </g>
 </g>

</svg>